<svg fill="#1DA8A6s" xmlns="http://www.w3.org/2000/svg" xmlns:xlink="http://www.w3.org/1999/xlink" version="1.1" x="0px" y="0px" viewBox="0 0 96 120" xml:space="preserve"><g><g><path d="M48,48L48,48c11,0,20-9,20-20v0c0-11-9-20-20-20h0c-11,0-20,9-20,20v0C28,39,37,48,48,48z"/><path d="M56.7,54.6C53.9,55.5,51,56,48,56s-5.9-0.5-8.7-1.4c-8.8-2.9-18.6-0.5-24.4,6.6C10.6,66.5,8,73.3,8,80.6    c0,4.1,3.3,7.4,7.4,7.4h65.2c4.1,0,7.4-3.3,7.4-7.4c0-7.3-2.6-14.1-6.9-19.4C75.2,54.1,65.5,51.7,56.7,54.6z"/></g></g></svg>